
        <svg xmlns="http://www.w3.org/2000/svg" xmlns:xlink="http://www.w3.org/1999/xlink" version="1.1" width="3171.4285714285716" height="2494.2710965960305" viewBox="0 0 3171.4285714285716 2494.2710965960305">
			
			<g transform="scale(8.571428571428573) translate(10, 10)">
				<defs id="SvgjsDefs1172"/><g id="SvgjsG1173" featureKey="symbolFeature-0" transform="matrix(-2.1875098050080144,0,0,-2.1875098050080144,284.87466621249314,193.59453429633257)" fill="#000"> <path xmlns="http://www.w3.org/2000/svg" d="m50 41.801c-6.1992 4.3008-10.199 11-10.898 18.398 6.8008 3.1992 15.102 3.1992 21.801 0-0.70312-7.3984-4.7031-14.098-10.902-18.398z"/> <path xmlns="http://www.w3.org/2000/svg" d="m79.898 42.602c-1.6992 8.8984-7.1992 16.801-15.199 21.199 0 0-0.10156 0-0.10156 0.10156-4.3984 2.3984-9.5 3.6992-14.602 3.6992-3.6992 0-7.5-0.69922-10.898-2 0.80078 8 5.1992 15 12.199 19.199 4 2.3984 8.5 3.6992 13.199 3.6992 14.105-0.10156 25.504-11.5 25.504-25.602 0-8.0977-3.8008-15.5-10.102-20.297z"/> <path xmlns="http://www.w3.org/2000/svg" d="m34 62.898v-1.3984-0.10156c0.39844-8.6992 4.5-16.699 11.199-22.102-3.1016-1.3008-6.3984-1.8984-9.6992-1.8984-4.3008 0-8.6016 1.1016-12.301 3.1992-8.0977 4.4023-13.199 13.004-13.199 22.301 0 14.102 11.398 25.5 25.5 25.5 3.3984 0 6.6992-0.69922 9.6992-1.8984-7.0977-5.6992-11.199-14.301-11.199-23.602z"/> <path xmlns="http://www.w3.org/2000/svg" d="m75.5 38.301v-1.1992c0-14.102-11.398-25.5-25.5-25.5-13.199 0-24.102 10.102-25.398 22.898 3.5-1.3008 7.1992-2 10.898-2 5.6016 0 11 1.5 15.699 4.3984 7.6016 4.6016 12.699 12.102 14.199 20.602 6-4.6992 9.8008-11.699 10.102-19.199z"/></g><g id="SvgjsG1174" featureKey="nameFeature-0" transform="matrix(2.3850085178875635,0,0,2.3850085178875635,-7.632027370966272,159.3799000598706)" fill="#000"><path d="M6 19.6 l0 20.4 l-2.8 0 l0 -20.4 l2.8 0 z M6 12 l0 4.8 l-2.8 0 l0 -4.8 l2.8 0 z M33.925 40 l-2.8 0 l0 -15.2 c0 -1.8 -1.4 -3.2 -3.2 -3.2 l-3.6 0 c-3 0 -4.6 3.6 -4.6 3.6 l0 14.8 l-2.8 0 l0 -20.4 l1.8 0 l0.4 2.8 l0.2 0 s1.6 -3.2 5 -3.2 l3.6 0 c3.6 0 6 2.4 6 5.6 l0 15.2 z M54.050000000000004 40.4 l-3.6 0 c-3.6 0 -6 -2.4 -6 -5.6 l0 -9.6 c0 -3.2 2.4 -5.6 6 -5.6 l8.2 0 l0 -7.6 l2.8 0 l0 28 l-1.8 0 l-0.4 -2.8 l-0.2 0 s-1.6 3.2 -5 3.2 z M50.45 38 l3.6 0 c3 0 4.6 -3.6 4.6 -3.6 l0 -12.4 l-8.2 0 c-1.8 0 -3.2 1.4 -3.2 3.2 l0 9.6 c0 1.8 1.4 3.2 3.2 3.2 z M87.775 20.8 l-7.2 19.2 c-1.8 4.8 -3.8 6.8 -7.4 6.8 l-1 0 l0 -2.4 l1 0 c2 0 3.4 -1.4 4.4 -4.4 l-7.6 -19.2 l0 -1.2 l2.8 0 l6.2 17.2 l0.2 0 l5.8 -17.2 l2.8 0 l0 1.2 z M107.50000000000003 19.2 l0 2.6 l-3.8 0 c-3 0 -4.6 3.4 -4.6 3.4 l0 14.8 l-2.8 0 l0 -20.4 l1.8 0 l0.4 2.8 l0.2 0 s1.6 -3.2 5 -3.2 l3.8 0 z M129.62500000000003 22 l-8.4 0 c-1.8 0 -3.2 1.4 -3.2 3.2 l0 9.2 c0 1.8 1.4 3.2 3.2 3.2 l9.2 0 l0 2.4 l-9.2 0 c-3.8 0 -6 -2.4 -6 -5.6 l0 -9.2 c0 -3.2 2.4 -5.6 6 -5.6 l9.2 0 l0 1.6 z M136.95000000000005 22 l0 -2.4 l3.2 0 l1.2 -6 l1.6 0 l0 6 l5.8 0 l0 2.4 l-5.8 0 l0 12.4 c0 1.8 1.4 3.2 3.2 3.2 l3.8 0 l0 2.4 l-3.8 0 c-3.6 0 -6 -2.4 -6 -5.6 l0 -12.4 l-3.2 0 z"/></g>
			</g>
		</svg>
	